<?xml version="1.0" encoding="UTF-8" standalone="no"?>
<!DOCTYPE svg PUBLIC "-//W3C//DTD SVG 1.1//EN"
 "http://www.w3.org/Graphics/SVG/1.1/DTD/svg11.dtd">
<!-- Generated by graphviz version 2.44.1 (20200629.0846)
 -->
<!-- Title: dependencies Pages: 1 -->
<svg width="1138pt" height="284pt"
 viewBox="0.00 0.00 1138.00 284.00" xmlns="http://www.w3.org/2000/svg" xmlns:xlink="http://www.w3.org/1999/xlink">
<g id="graph0" class="graph" transform="scale(1 1) rotate(0) translate(4 280)">
<title>dependencies</title>
<polygon fill="white" stroke="transparent" points="-4,4 -4,-280 1134,-280 1134,4 -4,4"/>
<text text-anchor="start" x="544.01" y="-42.4" font-family="sans-serif" font-weight="bold" font-size="14.00">Legend</text>
<polygon fill="#ffffb3" stroke="transparent" points="331,-10 331,-30 351,-30 351,-10 331,-10"/>
<text text-anchor="start" x="354.63" y="-15.4" font-family="sans-serif" font-size="14.00"> &#160;Declarations</text>
<polygon fill="#8dd3c7" stroke="transparent" points="444,-10 444,-30 464,-30 464,-10 444,-10"/>
<text text-anchor="start" x="467.73" y="-15.4" font-family="sans-serif" font-size="14.00"> &#160;Module</text>
<polygon fill="#80b1d3" stroke="transparent" points="530,-10 530,-30 550,-30 550,-10 530,-10"/>
<text text-anchor="start" x="553.78" y="-15.4" font-family="sans-serif" font-size="14.00"> &#160;Bootstrap</text>
<polygon fill="#fdb462" stroke="transparent" points="627,-10 627,-30 647,-30 647,-10 627,-10"/>
<text text-anchor="start" x="650.67" y="-15.4" font-family="sans-serif" font-size="14.00"> &#160;Providers</text>
<polygon fill="#fb8072" stroke="transparent" points="723,-10 723,-30 743,-30 743,-10 723,-10"/>
<text text-anchor="start" x="746.73" y="-15.4" font-family="sans-serif" font-size="14.00"> &#160;Exports</text>
<g id="clust1" class="cluster">
<title>cluster_RouteModule</title>
<polygon fill="none" stroke="black" stroke-dasharray="1,5" points="8,-70 8,-268 1122,-268 1122,-70 8,-70"/>
</g>
<g id="clust10" class="cluster">
<title>cluster_RouteModule_exports</title>
<polygon fill="none" stroke="black" points="497,-208 497,-260 623,-260 623,-208 497,-208"/>
</g>
<g id="clust9" class="cluster">
<title>cluster_RouteModule_imports</title>
<polygon fill="none" stroke="black" points="992,-78 992,-130 1114,-130 1114,-78 992,-78"/>
</g>
<g id="clust2" class="cluster">
<title>cluster_RouteModule_declarations</title>
<polygon fill="none" stroke="black" points="16,-78 16,-130 984,-130 984,-78 16,-78"/>
</g>
<!-- DeleteDialogComponent -->
<g id="node1" class="node">
<title>DeleteDialogComponent</title>
<polygon fill="#ffffb3" stroke="black" points="975.97,-122 820.03,-122 820.03,-86 975.97,-86 975.97,-122"/>
<text text-anchor="middle" x="898" y="-99.8" font-family="Times,serif" font-size="14.00">DeleteDialogComponent</text>
</g>
<!-- RouteModule -->
<g id="node7" class="node">
<title>RouteModule</title>
<polygon fill="#8dd3c7" stroke="black" points="606.49,-187 603.49,-191 582.49,-191 579.49,-187 513.51,-187 513.51,-151 606.49,-151 606.49,-187"/>
<text text-anchor="middle" x="560" y="-164.8" font-family="Times,serif" font-size="14.00">RouteModule</text>
</g>
<!-- DeleteDialogComponent&#45;&gt;RouteModule -->
<g id="edge1" class="edge">
<title>DeleteDialogComponent&#45;&gt;RouteModule</title>
<path fill="none" stroke="black" d="M898,-122.11C898,-141.34 898,-169 898,-169 898,-169 616.64,-169 616.64,-169"/>
<polygon fill="black" stroke="black" points="616.64,-165.5 606.64,-169 616.64,-172.5 616.64,-165.5"/>
</g>
<!-- GeoJsonUploadComponent -->
<g id="node2" class="node">
<title>GeoJsonUploadComponent</title>
<polygon fill="#ffffb3" stroke="black" points="802.25,-122 631.75,-122 631.75,-86 802.25,-86 802.25,-122"/>
<text text-anchor="middle" x="717" y="-99.8" font-family="Times,serif" font-size="14.00">GeoJsonUploadComponent</text>
</g>
<!-- GeoJsonUploadComponent&#45;&gt;RouteModule -->
<g id="edge2" class="edge">
<title>GeoJsonUploadComponent&#45;&gt;RouteModule</title>
<path fill="none" stroke="black" d="M717,-122.03C717,-138.4 717,-160 717,-160 717,-160 616.68,-160 616.68,-160"/>
<polygon fill="black" stroke="black" points="616.68,-156.5 606.68,-160 616.68,-163.5 616.68,-156.5"/>
</g>
<!-- MapComponent -->
<g id="node3" class="node">
<title>MapComponent</title>
<polygon fill="#ffffb3" stroke="black" points="613.49,-122 506.51,-122 506.51,-86 613.49,-86 613.49,-122"/>
<text text-anchor="middle" x="560" y="-99.8" font-family="Times,serif" font-size="14.00">MapComponent</text>
</g>
<!-- MapComponent&#45;&gt;RouteModule -->
<g id="edge3" class="edge">
<title>MapComponent&#45;&gt;RouteModule</title>
<path fill="none" stroke="black" d="M560,-122.11C560,-122.11 560,-140.99 560,-140.99"/>
<polygon fill="black" stroke="black" points="556.5,-140.99 560,-150.99 563.5,-140.99 556.5,-140.99"/>
</g>
<!-- RouteEditComponent -->
<g id="node4" class="node">
<title>RouteEditComponent</title>
<polygon fill="#ffffb3" stroke="black" points="488.11,-122 349.89,-122 349.89,-86 488.11,-86 488.11,-122"/>
<text text-anchor="middle" x="419" y="-99.8" font-family="Times,serif" font-size="14.00">RouteEditComponent</text>
</g>
<!-- RouteEditComponent&#45;&gt;RouteModule -->
<g id="edge4" class="edge">
<title>RouteEditComponent&#45;&gt;RouteModule</title>
<path fill="none" stroke="black" d="M419,-122.03C419,-138.4 419,-160 419,-160 419,-160 503.44,-160 503.44,-160"/>
<polygon fill="black" stroke="black" points="503.44,-163.5 513.44,-160 503.44,-156.5 503.44,-163.5"/>
</g>
<!-- RoutesOverviewComponent -->
<g id="node5" class="node">
<title>RoutesOverviewComponent</title>
<polygon fill="#ffffb3" stroke="black" points="331.91,-122 156.09,-122 156.09,-86 331.91,-86 331.91,-122"/>
<text text-anchor="middle" x="244" y="-99.8" font-family="Times,serif" font-size="14.00">RoutesOverviewComponent</text>
</g>
<!-- RoutesOverviewComponent&#45;&gt;RouteModule -->
<g id="edge5" class="edge">
<title>RoutesOverviewComponent&#45;&gt;RouteModule</title>
<path fill="none" stroke="black" d="M244,-122.11C244,-141.34 244,-169 244,-169 244,-169 503.37,-169 503.37,-169"/>
<polygon fill="black" stroke="black" points="503.37,-172.5 513.37,-169 503.37,-165.5 503.37,-172.5"/>
</g>
<!-- TrackComponent -->
<g id="node6" class="node">
<title>TrackComponent</title>
<polygon fill="#ffffb3" stroke="black" points="137.97,-122 24.03,-122 24.03,-86 137.97,-86 137.97,-122"/>
<text text-anchor="middle" x="81" y="-99.8" font-family="Times,serif" font-size="14.00">TrackComponent</text>
</g>
<!-- TrackComponent&#45;&gt;RouteModule -->
<g id="edge6" class="edge">
<title>TrackComponent&#45;&gt;RouteModule</title>
<path fill="none" stroke="black" d="M81,-122.29C81,-144.21 81,-178 81,-178 81,-178 503.2,-178 503.2,-178"/>
<polygon fill="black" stroke="black" points="503.2,-181.5 513.2,-178 503.2,-174.5 503.2,-181.5"/>
</g>
<!-- MapComponent  -->
<g id="node9" class="node">
<title>MapComponent </title>
<polygon fill="#fb8072" stroke="black" points="615.49,-252 504.51,-252 504.51,-216 615.49,-216 615.49,-252"/>
<text text-anchor="middle" x="560" y="-229.8" font-family="Times,serif" font-size="14.00">MapComponent </text>
</g>
<!-- RouteModule&#45;&gt;MapComponent  -->
<g id="edge8" class="edge">
<title>RouteModule&#45;&gt;MapComponent </title>
<path fill="none" stroke="black" stroke-dasharray="5,2" d="M560,-187.11C560,-187.11 560,-205.99 560,-205.99"/>
<polygon fill="black" stroke="black" points="556.5,-205.99 560,-215.99 563.5,-205.99 556.5,-205.99"/>
</g>
<!-- MaterialModule -->
<g id="node8" class="node">
<title>MaterialModule</title>
<polygon fill="#8dd3c7" stroke="black" points="1106.47,-122 1103.47,-126 1082.47,-126 1079.47,-122 999.53,-122 999.53,-86 1106.47,-86 1106.47,-122"/>
<text text-anchor="middle" x="1053" y="-99.8" font-family="Times,serif" font-size="14.00">MaterialModule</text>
</g>
<!-- MaterialModule&#45;&gt;RouteModule -->
<g id="edge7" class="edge">
<title>MaterialModule&#45;&gt;RouteModule</title>
<path fill="none" stroke="black" d="M1053,-122.29C1053,-144.21 1053,-178 1053,-178 1053,-178 616.82,-178 616.82,-178"/>
<polygon fill="black" stroke="black" points="616.82,-174.5 606.82,-178 616.82,-181.5 616.82,-174.5"/>
</g>
</g>
</svg>
