<?xml version="1.0" encoding="UTF-8" standalone="no"?>
<!DOCTYPE svg PUBLIC "-//W3C//DTD SVG 1.1//EN"
 "http://www.w3.org/Graphics/SVG/1.1/DTD/svg11.dtd">
<!-- Generated by graphviz version 2.44.1 (20200629.0846)
 -->
<!-- Title: dependencies Pages: 1 -->
<svg width="1138pt" height="284pt"
 viewBox="0.00 0.00 1138.00 284.00" xmlns="http://www.w3.org/2000/svg" xmlns:xlink="http://www.w3.org/1999/xlink">
<g id="graph0" class="graph" transform="scale(1 1) rotate(0) translate(4 280)">
<title>dependencies</title>
<polygon fill="white" stroke="transparent" points="-4,4 -4,-280 1134,-280 1134,4 -4,4"/>
<text text-anchor="start" x="544.01" y="-42.4" font-family="sans-serif" font-weight="bold" font-size="14.00">Legend</text>
<polygon fill="#ffffb3" stroke="transparent" points="331,-10 331,-30 351,-30 351,-10 331,-10"/>
<text text-anchor="start" x="354.63" y="-15.4" font-family="sans-serif" font-size="14.00"> &#160;Declarations</text>
<polygon fill="#8dd3c7" stroke="transparent" points="444,-10 444,-30 464,-30 464,-10 444,-10"/>
<text text-anchor="start" x="467.73" y="-15.4" font-family="sans-serif" font-size="14.00"> &#160;Module</text>
<polygon fill="#80b1d3" stroke="transparent" points="530,-10 530,-30 550,-30 550,-10 530,-10"/>
<text text-anchor="start" x="553.78" y="-15.4" font-family="sans-serif" font-size="14.00"> &#160;Bootstrap</text>
<polygon fill="#fdb462" stroke="transparent" points="627,-10 627,-30 647,-30 647,-10 627,-10"/>
<text text-anchor="start" x="650.67" y="-15.4" font-family="sans-serif" font-size="14.00"> &#160;Providers</text>
<polygon fill="#fb8072" stroke="transparent" points="723,-10 723,-30 743,-30 743,-10 723,-10"/>
<text text-anchor="start" x="746.73" y="-15.4" font-family="sans-serif" font-size="14.00"> &#160;Exports</text>
<g id="clust1" class="cluster">
<title>cluster_RouteModule</title>
<polygon fill="none" stroke="black" stroke-dasharray="1,5" points="8,-70 8,-268 1122,-268 1122,-70 8,-70"/>
</g>
<g id="clust2" class="cluster">
<title>cluster_RouteModule_declarations</title>
<polygon fill="none" stroke="black" points="146,-78 146,-130 1114,-130 1114,-78 146,-78"/>
</g>
<g id="clust9" class="cluster">
<title>cluster_RouteModule_imports</title>
<polygon fill="none" stroke="black" points="16,-78 16,-130 138,-130 138,-78 16,-78"/>
</g>
<g id="clust10" class="cluster">
<title>cluster_RouteModule_exports</title>
<polygon fill="none" stroke="black" points="486,-208 486,-260 612,-260 612,-208 486,-208"/>
</g>
<!-- DeleteDialogComponent -->
<g id="node1" class="node">
<title>DeleteDialogComponent</title>
<polygon fill="#ffffb3" stroke="black" points="1105.97,-122 950.03,-122 950.03,-86 1105.97,-86 1105.97,-122"/>
<text text-anchor="middle" x="1028" y="-99.8" font-family="Times,serif" font-size="14.00">DeleteDialogComponent</text>
</g>
<!-- RouteModule -->
<g id="node7" class="node">
<title>RouteModule</title>
<polygon fill="#8dd3c7" stroke="black" points="595.49,-187 592.49,-191 571.49,-191 568.49,-187 502.51,-187 502.51,-151 595.49,-151 595.49,-187"/>
<text text-anchor="middle" x="549" y="-164.8" font-family="Times,serif" font-size="14.00">RouteModule</text>
</g>
<!-- DeleteDialogComponent&#45;&gt;RouteModule -->
<g id="edge1" class="edge">
<title>DeleteDialogComponent&#45;&gt;RouteModule</title>
<path fill="none" stroke="black" d="M1028,-122.29C1028,-144.21 1028,-178 1028,-178 1028,-178 605.8,-178 605.8,-178"/>
<polygon fill="black" stroke="black" points="605.8,-174.5 595.8,-178 605.8,-181.5 605.8,-174.5"/>
</g>
<!-- GeoJsonUploadComponent -->
<g id="node2" class="node">
<title>GeoJsonUploadComponent</title>
<polygon fill="#ffffb3" stroke="black" points="932.25,-122 761.75,-122 761.75,-86 932.25,-86 932.25,-122"/>
<text text-anchor="middle" x="847" y="-99.8" font-family="Times,serif" font-size="14.00">GeoJsonUploadComponent</text>
</g>
<!-- GeoJsonUploadComponent&#45;&gt;RouteModule -->
<g id="edge2" class="edge">
<title>GeoJsonUploadComponent&#45;&gt;RouteModule</title>
<path fill="none" stroke="black" d="M847,-122.11C847,-141.34 847,-169 847,-169 847,-169 605.56,-169 605.56,-169"/>
<polygon fill="black" stroke="black" points="605.56,-165.5 595.56,-169 605.56,-172.5 605.56,-165.5"/>
</g>
<!-- MapComponent -->
<g id="node3" class="node">
<title>MapComponent</title>
<polygon fill="#ffffb3" stroke="black" points="743.49,-122 636.51,-122 636.51,-86 743.49,-86 743.49,-122"/>
<text text-anchor="middle" x="690" y="-99.8" font-family="Times,serif" font-size="14.00">MapComponent</text>
</g>
<!-- MapComponent&#45;&gt;RouteModule -->
<g id="edge3" class="edge">
<title>MapComponent&#45;&gt;RouteModule</title>
<path fill="none" stroke="black" d="M690,-122.03C690,-138.4 690,-160 690,-160 690,-160 605.56,-160 605.56,-160"/>
<polygon fill="black" stroke="black" points="605.56,-156.5 595.56,-160 605.56,-163.5 605.56,-156.5"/>
</g>
<!-- RouteEditComponent -->
<g id="node4" class="node">
<title>RouteEditComponent</title>
<polygon fill="#ffffb3" stroke="black" points="618.11,-122 479.89,-122 479.89,-86 618.11,-86 618.11,-122"/>
<text text-anchor="middle" x="549" y="-99.8" font-family="Times,serif" font-size="14.00">RouteEditComponent</text>
</g>
<!-- RouteEditComponent&#45;&gt;RouteModule -->
<g id="edge4" class="edge">
<title>RouteEditComponent&#45;&gt;RouteModule</title>
<path fill="none" stroke="black" d="M549,-122.11C549,-122.11 549,-140.99 549,-140.99"/>
<polygon fill="black" stroke="black" points="545.5,-140.99 549,-150.99 552.5,-140.99 545.5,-140.99"/>
</g>
<!-- RoutesOverviewComponent -->
<g id="node5" class="node">
<title>RoutesOverviewComponent</title>
<polygon fill="#ffffb3" stroke="black" points="461.91,-122 286.09,-122 286.09,-86 461.91,-86 461.91,-122"/>
<text text-anchor="middle" x="374" y="-99.8" font-family="Times,serif" font-size="14.00">RoutesOverviewComponent</text>
</g>
<!-- RoutesOverviewComponent&#45;&gt;RouteModule -->
<g id="edge5" class="edge">
<title>RoutesOverviewComponent&#45;&gt;RouteModule</title>
<path fill="none" stroke="black" d="M374,-122.03C374,-138.4 374,-160 374,-160 374,-160 492.1,-160 492.1,-160"/>
<polygon fill="black" stroke="black" points="492.1,-163.5 502.1,-160 492.1,-156.5 492.1,-163.5"/>
</g>
<!-- TrackComponent -->
<g id="node6" class="node">
<title>TrackComponent</title>
<polygon fill="#ffffb3" stroke="black" points="267.97,-122 154.03,-122 154.03,-86 267.97,-86 267.97,-122"/>
<text text-anchor="middle" x="211" y="-99.8" font-family="Times,serif" font-size="14.00">TrackComponent</text>
</g>
<!-- TrackComponent&#45;&gt;RouteModule -->
<g id="edge6" class="edge">
<title>TrackComponent&#45;&gt;RouteModule</title>
<path fill="none" stroke="black" d="M211,-122.11C211,-141.34 211,-169 211,-169 211,-169 492.36,-169 492.36,-169"/>
<polygon fill="black" stroke="black" points="492.36,-172.5 502.36,-169 492.36,-165.5 492.36,-172.5"/>
</g>
<!-- MapComponent  -->
<g id="node9" class="node">
<title>MapComponent </title>
<polygon fill="#fb8072" stroke="black" points="604.49,-252 493.51,-252 493.51,-216 604.49,-216 604.49,-252"/>
<text text-anchor="middle" x="549" y="-229.8" font-family="Times,serif" font-size="14.00">MapComponent </text>
</g>
<!-- RouteModule&#45;&gt;MapComponent  -->
<g id="edge8" class="edge">
<title>RouteModule&#45;&gt;MapComponent </title>
<path fill="none" stroke="black" stroke-dasharray="5,2" d="M549,-187.11C549,-187.11 549,-205.99 549,-205.99"/>
<polygon fill="black" stroke="black" points="545.5,-205.99 549,-215.99 552.5,-205.99 545.5,-205.99"/>
</g>
<!-- MaterialModule -->
<g id="node8" class="node">
<title>MaterialModule</title>
<polygon fill="#8dd3c7" stroke="black" points="130.47,-122 127.47,-126 106.47,-126 103.47,-122 23.53,-122 23.53,-86 130.47,-86 130.47,-122"/>
<text text-anchor="middle" x="77" y="-99.8" font-family="Times,serif" font-size="14.00">MaterialModule</text>
</g>
<!-- MaterialModule&#45;&gt;RouteModule -->
<g id="edge7" class="edge">
<title>MaterialModule&#45;&gt;RouteModule</title>
<path fill="none" stroke="black" d="M77,-122.29C77,-144.21 77,-178 77,-178 77,-178 492.45,-178 492.45,-178"/>
<polygon fill="black" stroke="black" points="492.45,-181.5 502.45,-178 492.45,-174.5 492.45,-181.5"/>
</g>
</g>
</svg>
