<?xml version="1.0" encoding="UTF-8" standalone="no"?>
<!DOCTYPE svg PUBLIC "-//W3C//DTD SVG 1.1//EN"
 "http://www.w3.org/Graphics/SVG/1.1/DTD/svg11.dtd">
<!-- Generated by graphviz version 2.44.1 (20200629.0846)
 -->
<!-- Title: dependencies Pages: 1 -->
<svg width="3679pt" height="352pt"
 viewBox="0.00 0.00 3679.00 352.00" xmlns="http://www.w3.org/2000/svg" xmlns:xlink="http://www.w3.org/1999/xlink">
<g id="graph0" class="graph" transform="scale(1 1) rotate(0) translate(4 348)">
<title>dependencies</title>
<polygon fill="white" stroke="transparent" points="-4,4 -4,-348 3675,-348 3675,4 -4,4"/>
<text text-anchor="start" x="1814.51" y="-42.4" font-family="sans-serif" font-weight="bold" font-size="14.00">Legend</text>
<polygon fill="#ffffb3" stroke="transparent" points="1601.5,-10 1601.5,-30 1621.5,-30 1621.5,-10 1601.5,-10"/>
<text text-anchor="start" x="1625.13" y="-15.4" font-family="sans-serif" font-size="14.00"> &#160;Declarations</text>
<polygon fill="#8dd3c7" stroke="transparent" points="1714.5,-10 1714.5,-30 1734.5,-30 1734.5,-10 1714.5,-10"/>
<text text-anchor="start" x="1738.23" y="-15.4" font-family="sans-serif" font-size="14.00"> &#160;Module</text>
<polygon fill="#80b1d3" stroke="transparent" points="1800.5,-10 1800.5,-30 1820.5,-30 1820.5,-10 1800.5,-10"/>
<text text-anchor="start" x="1824.28" y="-15.4" font-family="sans-serif" font-size="14.00"> &#160;Bootstrap</text>
<polygon fill="#fdb462" stroke="transparent" points="1897.5,-10 1897.5,-30 1917.5,-30 1917.5,-10 1897.5,-10"/>
<text text-anchor="start" x="1921.17" y="-15.4" font-family="sans-serif" font-size="14.00"> &#160;Providers</text>
<polygon fill="#fb8072" stroke="transparent" points="1993.5,-10 1993.5,-30 2013.5,-30 2013.5,-10 1993.5,-10"/>
<text text-anchor="start" x="2017.23" y="-15.4" font-family="sans-serif" font-size="14.00"> &#160;Exports</text>
<g id="clust1" class="cluster">
<title>cluster_AppModule</title>
<polygon fill="none" stroke="black" stroke-dasharray="1,5" points="8,-70 8,-336 2099,-336 2099,-70 8,-70"/>
</g>
<g id="clust2" class="cluster">
<title>cluster_AppModule_declarations</title>
<polygon fill="none" stroke="black" points="293,-146 293,-198 2091,-198 2091,-146 293,-146"/>
</g>
<g id="clust14" class="cluster">
<title>cluster_AppModule_imports</title>
<polygon fill="none" stroke="black" points="16,-78 16,-198 285,-198 285,-78 16,-78"/>
</g>
<g id="clust16" class="cluster">
<title>cluster_AppModule_bootstrap</title>
<polygon fill="none" stroke="black" points="713,-276 713,-328 837,-328 837,-276 713,-276"/>
</g>
<g id="clust30" class="cluster">
<title>cluster_RouteModule</title>
<polygon fill="none" stroke="black" stroke-dasharray="1,5" points="2107,-70 2107,-138 3225,-138 3225,-70 2107,-70"/>
</g>
<g id="clust31" class="cluster">
<title>cluster_RouteModule_declarations</title>
<polygon fill="none" stroke="black" points="2249,-78 2249,-130 3217,-130 3217,-78 2249,-78"/>
</g>
<g id="clust39" class="cluster">
<title>cluster_RouteModule_exports</title>
<polygon fill="none" stroke="black" points="2115,-78 2115,-130 2241,-130 2241,-78 2115,-78"/>
</g>
<g id="clust42" class="cluster">
<title>cluster_UserModule</title>
<polygon fill="none" stroke="black" stroke-dasharray="1,5" points="3233,-70 3233,-138 3663,-138 3663,-70 3233,-70"/>
</g>
<g id="clust43" class="cluster">
<title>cluster_UserModule_declarations</title>
<polygon fill="none" stroke="black" points="3241,-78 3241,-130 3655,-130 3655,-78 3241,-78"/>
</g>
<!-- AppComponent -->
<g id="node1" class="node">
<title>AppComponent</title>
<polygon fill="#ffffb3" stroke="black" points="676.94,-190 571.06,-190 571.06,-154 676.94,-154 676.94,-190"/>
<text text-anchor="middle" x="624" y="-167.8" font-family="Times,serif" font-size="14.00">AppComponent</text>
</g>
<!-- AppModule -->
<g id="node12" class="node">
<title>AppModule</title>
<polygon fill="#8dd3c7" stroke="black" points="816.66,-255 813.66,-259 792.66,-259 789.66,-255 733.34,-255 733.34,-219 816.66,-219 816.66,-255"/>
<text text-anchor="middle" x="775" y="-232.8" font-family="Times,serif" font-size="14.00">AppModule</text>
</g>
<!-- AppComponent&#45;&gt;AppModule -->
<g id="edge1" class="edge">
<title>AppComponent&#45;&gt;AppModule</title>
<path fill="none" stroke="black" d="M624,-190.19C624,-205.18 624,-224 624,-224 624,-224 723.34,-224 723.34,-224"/>
<polygon fill="black" stroke="black" points="723.34,-227.5 733.34,-224 723.34,-220.5 723.34,-227.5"/>
</g>
<!-- FooterComponent -->
<g id="node2" class="node">
<title>FooterComponent</title>
<polygon fill="#ffffb3" stroke="black" points="552.88,-190 435.12,-190 435.12,-154 552.88,-154 552.88,-190"/>
<text text-anchor="middle" x="494" y="-167.8" font-family="Times,serif" font-size="14.00">FooterComponent</text>
</g>
<!-- FooterComponent&#45;&gt;AppModule -->
<g id="edge2" class="edge">
<title>FooterComponent&#45;&gt;AppModule</title>
<path fill="none" stroke="black" d="M494,-190.03C494,-206.4 494,-228 494,-228 494,-228 723.23,-228 723.23,-228"/>
<polygon fill="black" stroke="black" points="723.23,-231.5 733.23,-228 723.23,-224.5 723.23,-231.5"/>
</g>
<!-- HomeComponent -->
<g id="node3" class="node">
<title>HomeComponent</title>
<polygon fill="#ffffb3" stroke="black" points="416.55,-190 301.45,-190 301.45,-154 416.55,-154 416.55,-190"/>
<text text-anchor="middle" x="359" y="-167.8" font-family="Times,serif" font-size="14.00">HomeComponent</text>
</g>
<!-- HomeComponent&#45;&gt;AppModule -->
<g id="edge3" class="edge">
<title>HomeComponent&#45;&gt;AppModule</title>
<path fill="none" stroke="black" d="M359,-190.3C359,-208.27 359,-233 359,-233 359,-233 723.21,-233 723.21,-233"/>
<polygon fill="black" stroke="black" points="723.21,-236.5 733.21,-233 723.21,-229.5 723.21,-236.5"/>
</g>
<!-- InschrijvenDialogComponent -->
<g id="node4" class="node">
<title>InschrijvenDialogComponent</title>
<polygon fill="#ffffb3" stroke="black" points="2083.41,-190 1900.59,-190 1900.59,-154 2083.41,-154 2083.41,-190"/>
<text text-anchor="middle" x="1992" y="-167.8" font-family="Times,serif" font-size="14.00">InschrijvenDialogComponent</text>
</g>
<!-- InschrijvenDialogComponent&#45;&gt;AppModule -->
<g id="edge4" class="edge">
<title>InschrijvenDialogComponent&#45;&gt;AppModule</title>
<path fill="none" stroke="black" d="M1992,-190.32C1992,-213.66 1992,-251 1992,-251 1992,-251 826.89,-251 826.89,-251"/>
<polygon fill="black" stroke="black" points="826.89,-247.5 816.89,-251 826.89,-254.5 826.89,-247.5"/>
</g>
<!-- LoperComponent -->
<g id="node5" class="node">
<title>LoperComponent</title>
<polygon fill="#ffffb3" stroke="black" points="1882.26,-190 1767.74,-190 1767.74,-154 1882.26,-154 1882.26,-190"/>
<text text-anchor="middle" x="1825" y="-167.8" font-family="Times,serif" font-size="14.00">LoperComponent</text>
</g>
<!-- LoperComponent&#45;&gt;AppModule -->
<g id="edge5" class="edge">
<title>LoperComponent&#45;&gt;AppModule</title>
<path fill="none" stroke="black" d="M1825,-190.29C1825,-212.21 1825,-246 1825,-246 1825,-246 826.81,-246 826.81,-246"/>
<polygon fill="black" stroke="black" points="826.81,-242.5 816.81,-246 826.81,-249.5 826.81,-242.5"/>
</g>
<!-- MainNavComponent -->
<g id="node6" class="node">
<title>MainNavComponent</title>
<polygon fill="#ffffb3" stroke="black" points="1750.2,-190 1615.8,-190 1615.8,-154 1750.2,-154 1750.2,-190"/>
<text text-anchor="middle" x="1683" y="-167.8" font-family="Times,serif" font-size="14.00">MainNavComponent</text>
</g>
<!-- MainNavComponent&#45;&gt;AppModule -->
<g id="edge6" class="edge">
<title>MainNavComponent&#45;&gt;AppModule</title>
<path fill="none" stroke="black" d="M1683,-190.03C1683,-210.77 1683,-242 1683,-242 1683,-242 826.67,-242 826.67,-242"/>
<polygon fill="black" stroke="black" points="826.67,-238.5 816.67,-242 826.67,-245.5 826.67,-238.5"/>
</g>
<!-- PageNotFoundComponent -->
<g id="node7" class="node">
<title>PageNotFoundComponent</title>
<polygon fill="#ffffb3" stroke="black" points="1597.82,-190 1432.18,-190 1432.18,-154 1597.82,-154 1597.82,-190"/>
<text text-anchor="middle" x="1515" y="-167.8" font-family="Times,serif" font-size="14.00">PageNotFoundComponent</text>
</g>
<!-- PageNotFoundComponent&#45;&gt;AppModule -->
<g id="edge7" class="edge">
<title>PageNotFoundComponent&#45;&gt;AppModule</title>
<path fill="none" stroke="black" d="M1515,-190.11C1515,-209.34 1515,-237 1515,-237 1515,-237 826.91,-237 826.91,-237"/>
<polygon fill="black" stroke="black" points="826.91,-233.5 816.91,-237 826.91,-240.5 826.91,-233.5"/>
</g>
<!-- RegisterRouteComponent -->
<g id="node8" class="node">
<title>RegisterRouteComponent</title>
<polygon fill="#ffffb3" stroke="black" points="1414.93,-190 1253.07,-190 1253.07,-154 1414.93,-154 1414.93,-190"/>
<text text-anchor="middle" x="1334" y="-167.8" font-family="Times,serif" font-size="14.00">RegisterRouteComponent</text>
</g>
<!-- RegisterRouteComponent&#45;&gt;AppModule -->
<g id="edge8" class="edge">
<title>RegisterRouteComponent&#45;&gt;AppModule</title>
<path fill="none" stroke="black" d="M1334,-190.3C1334,-208.27 1334,-233 1334,-233 1334,-233 827.02,-233 827.02,-233"/>
<polygon fill="black" stroke="black" points="827.02,-229.5 817.02,-233 827.02,-236.5 827.02,-229.5"/>
</g>
<!-- RegisterRouteItemComponent -->
<g id="node9" class="node">
<title>RegisterRouteItemComponent</title>
<polygon fill="#ffffb3" stroke="black" points="1235.58,-190 1048.42,-190 1048.42,-154 1235.58,-154 1235.58,-190"/>
<text text-anchor="middle" x="1142" y="-167.8" font-family="Times,serif" font-size="14.00">RegisterRouteItemComponent</text>
</g>
<!-- RegisterRouteItemComponent&#45;&gt;AppModule -->
<g id="edge9" class="edge">
<title>RegisterRouteItemComponent&#45;&gt;AppModule</title>
<path fill="none" stroke="black" d="M1142,-190.03C1142,-206.4 1142,-228 1142,-228 1142,-228 826.74,-228 826.74,-228"/>
<polygon fill="black" stroke="black" points="826.74,-224.5 816.74,-228 826.74,-231.5 826.74,-224.5"/>
</g>
<!-- SearchDialogComponent -->
<g id="node10" class="node">
<title>SearchDialogComponent</title>
<polygon fill="#ffffb3" stroke="black" points="1030.52,-190 873.48,-190 873.48,-154 1030.52,-154 1030.52,-190"/>
<text text-anchor="middle" x="952" y="-167.8" font-family="Times,serif" font-size="14.00">SearchDialogComponent</text>
</g>
<!-- SearchDialogComponent&#45;&gt;AppModule -->
<g id="edge10" class="edge">
<title>SearchDialogComponent&#45;&gt;AppModule</title>
<path fill="none" stroke="black" d="M952,-190.19C952,-205.18 952,-224 952,-224 952,-224 826.95,-224 826.95,-224"/>
<polygon fill="black" stroke="black" points="826.95,-220.5 816.95,-224 826.95,-227.5 826.95,-220.5"/>
</g>
<!-- TrackConfirmComponent -->
<g id="node11" class="node">
<title>TrackConfirmComponent</title>
<polygon fill="#ffffb3" stroke="black" points="855.91,-190 694.09,-190 694.09,-154 855.91,-154 855.91,-190"/>
<text text-anchor="middle" x="775" y="-167.8" font-family="Times,serif" font-size="14.00">TrackConfirmComponent</text>
</g>
<!-- TrackConfirmComponent&#45;&gt;AppModule -->
<g id="edge11" class="edge">
<title>TrackConfirmComponent&#45;&gt;AppModule</title>
<path fill="none" stroke="black" d="M775,-190.11C775,-190.11 775,-208.99 775,-208.99"/>
<polygon fill="black" stroke="black" points="771.5,-208.99 775,-218.99 778.5,-208.99 771.5,-208.99"/>
</g>
<!-- AppComponent  -->
<g id="node17" class="node">
<title>AppComponent </title>
<polygon fill="#80b1d3" stroke="black" points="829.44,-320 720.56,-320 720.56,-284 829.44,-284 829.44,-320"/>
<text text-anchor="middle" x="775" y="-297.8" font-family="Times,serif" font-size="14.00">AppComponent </text>
</g>
<!-- AppModule&#45;&gt;AppComponent  -->
<g id="edge16" class="edge">
<title>AppModule&#45;&gt;AppComponent </title>
<path fill="none" stroke="black" stroke-dasharray="1,5" d="M775,-255.11C775,-255.11 775,-273.99 775,-273.99"/>
<polygon fill="black" stroke="black" points="771.5,-273.99 775,-283.99 778.5,-273.99 771.5,-273.99"/>
</g>
<!-- AppRoutingModule -->
<g id="node13" class="node">
<title>AppRoutingModule</title>
<polygon fill="#8dd3c7" stroke="black" points="152.27,-122 149.27,-126 128.27,-126 125.27,-122 23.73,-122 23.73,-86 152.27,-86 152.27,-122"/>
<text text-anchor="middle" x="88" y="-99.8" font-family="Times,serif" font-size="14.00">AppRoutingModule</text>
</g>
<!-- AppRoutingModule&#45;&gt;AppModule -->
<g id="edge12" class="edge">
<title>AppRoutingModule&#45;&gt;AppModule</title>
<path fill="none" stroke="black" d="M52.06,-122.03C52.06,-161.28 52.06,-251 52.06,-251 52.06,-251 723.27,-251 723.27,-251"/>
<polygon fill="black" stroke="black" points="723.27,-254.5 733.27,-251 723.27,-247.5 723.27,-254.5"/>
</g>
<!-- MaterialModule -->
<g id="node14" class="node">
<title>MaterialModule</title>
<polygon fill="#8dd3c7" stroke="black" points="277.47,-122 274.47,-126 253.47,-126 250.47,-122 170.53,-122 170.53,-86 277.47,-86 277.47,-122"/>
<text text-anchor="middle" x="224" y="-99.8" font-family="Times,serif" font-size="14.00">MaterialModule</text>
</g>
<!-- MaterialModule&#45;&gt;AppModule -->
<g id="edge13" class="edge">
<title>MaterialModule&#45;&gt;AppModule</title>
<path fill="none" stroke="black" d="M185.17,-122.04C185.17,-159.45 185.17,-242 185.17,-242 185.17,-242 723.05,-242 723.05,-242"/>
<polygon fill="black" stroke="black" points="723.05,-245.5 733.05,-242 723.05,-238.5 723.05,-245.5"/>
</g>
<!-- RouteModule -->
<g id="node15" class="node">
<title>RouteModule</title>
<polygon fill="#8dd3c7" stroke="black" points="173.49,-190 170.49,-194 149.49,-194 146.49,-190 80.51,-190 80.51,-154 173.49,-154 173.49,-190"/>
<text text-anchor="middle" x="127" y="-167.8" font-family="Times,serif" font-size="14.00">RouteModule</text>
</g>
<!-- MaterialModule&#45;&gt;RouteModule -->
<g id="edge23" class="edge">
<title>MaterialModule&#45;&gt;RouteModule</title>
<path fill="none" stroke="black" d="M179.33,-122.22C179.33,-142.37 179.33,-172 179.33,-172 179.33,-172 178.77,-172 178.77,-172"/>
<polygon fill="black" stroke="black" points="183.73,-168.5 173.73,-172 183.73,-175.5 183.73,-168.5"/>
</g>
<!-- UserModule -->
<g id="node16" class="node">
<title>UserModule</title>
<polygon fill="#8dd3c7" stroke="black" points="276.98,-190 273.98,-194 252.98,-194 249.98,-190 191.02,-190 191.02,-154 276.98,-154 276.98,-190"/>
<text text-anchor="middle" x="234" y="-167.8" font-family="Times,serif" font-size="14.00">UserModule</text>
</g>
<!-- MaterialModule&#45;&gt;UserModule -->
<g id="edge28" class="edge">
<title>MaterialModule&#45;&gt;UserModule</title>
<path fill="none" stroke="black" d="M208.21,-122.22C208.21,-122.22 208.21,-143.73 208.21,-143.73"/>
<polygon fill="black" stroke="black" points="204.71,-143.73 208.21,-153.73 211.71,-143.73 204.71,-143.73"/>
</g>
<!-- RouteModule&#45;&gt;AppModule -->
<g id="edge14" class="edge">
<title>RouteModule&#45;&gt;AppModule</title>
<path fill="none" stroke="black" d="M127,-190.29C127,-212.21 127,-246 127,-246 127,-246 722.98,-246 722.98,-246"/>
<polygon fill="black" stroke="black" points="722.98,-249.5 732.98,-246 722.98,-242.5 722.98,-249.5"/>
</g>
<!-- MapComponent  -->
<g id="node24" class="node">
<title>MapComponent </title>
<polygon fill="#fb8072" stroke="black" points="2233.49,-122 2122.51,-122 2122.51,-86 2233.49,-86 2233.49,-122"/>
<text text-anchor="middle" x="2178" y="-99.8" font-family="Times,serif" font-size="14.00">MapComponent </text>
</g>
<!-- RouteModule&#45;&gt;MapComponent  -->
<g id="edge24" class="edge">
<title>RouteModule&#45;&gt;MapComponent </title>
<path fill="none" stroke="black" stroke-dasharray="5,2" d="M168.25,-153.96C168.25,-140.71 168.25,-125 168.25,-125 168.25,-125 2178,-125 2178,-125 2178,-125 2178,-124.71 2178,-124.71"/>
<polygon fill="black" stroke="black" points="2181.5,-132.08 2178,-122.08 2174.5,-132.08 2181.5,-132.08"/>
</g>
<!-- UserModule&#45;&gt;AppModule -->
<g id="edge15" class="edge">
<title>UserModule&#45;&gt;AppModule</title>
<path fill="none" stroke="black" d="M234,-190.11C234,-209.34 234,-237 234,-237 234,-237 723,-237 723,-237"/>
<polygon fill="black" stroke="black" points="723,-240.5 733,-237 723,-233.5 723,-240.5"/>
</g>
<!-- DeleteDialogComponent -->
<g id="node18" class="node">
<title>DeleteDialogComponent</title>
<polygon fill="#ffffb3" stroke="black" points="3208.97,-122 3053.03,-122 3053.03,-86 3208.97,-86 3208.97,-122"/>
<text text-anchor="middle" x="3131" y="-99.8" font-family="Times,serif" font-size="14.00">DeleteDialogComponent</text>
</g>
<!-- DeleteDialogComponent&#45;&gt;RouteModule -->
<g id="edge17" class="edge">
<title>DeleteDialogComponent&#45;&gt;RouteModule</title>
<path fill="none" stroke="black" d="M3131,-122.13C3131,-132.31 3131,-143 3131,-143 3131,-143 165.98,-143 165.98,-143 165.98,-143 165.98,-144.08 165.98,-144.08"/>
<polygon fill="black" stroke="black" points="162.48,-143.8 165.98,-153.8 169.48,-143.8 162.48,-143.8"/>
</g>
<!-- GeoJsonUploadComponent -->
<g id="node19" class="node">
<title>GeoJsonUploadComponent</title>
<polygon fill="#ffffb3" stroke="black" points="3035.25,-122 2864.75,-122 2864.75,-86 3035.25,-86 3035.25,-122"/>
<text text-anchor="middle" x="2950" y="-99.8" font-family="Times,serif" font-size="14.00">GeoJsonUploadComponent</text>
</g>
<!-- GeoJsonUploadComponent&#45;&gt;RouteModule -->
<g id="edge18" class="edge">
<title>GeoJsonUploadComponent&#45;&gt;RouteModule</title>
<path fill="none" stroke="black" d="M2950,-122.42C2950,-131.28 2950,-140 2950,-140 2950,-140 163.72,-140 163.72,-140 163.72,-140 163.72,-143.76 163.72,-143.76"/>
<polygon fill="black" stroke="black" points="160.22,-143.76 163.72,-153.76 167.22,-143.76 160.22,-143.76"/>
</g>
<!-- MapComponent -->
<g id="node20" class="node">
<title>MapComponent</title>
<polygon fill="#ffffb3" stroke="black" points="2846.49,-122 2739.51,-122 2739.51,-86 2846.49,-86 2846.49,-122"/>
<text text-anchor="middle" x="2793" y="-99.8" font-family="Times,serif" font-size="14.00">MapComponent</text>
</g>
<!-- MapComponent&#45;&gt;RouteModule -->
<g id="edge19" class="edge">
<title>MapComponent&#45;&gt;RouteModule</title>
<path fill="none" stroke="black" d="M2793,-122.04C2793,-129.75 2793,-137 2793,-137 2793,-137 161.45,-137 161.45,-137 161.45,-137 161.45,-143.68 161.45,-143.68"/>
<polygon fill="black" stroke="black" points="157.95,-143.68 161.45,-153.68 164.95,-143.68 157.95,-143.68"/>
</g>
<!-- RouteEditComponent -->
<g id="node21" class="node">
<title>RouteEditComponent</title>
<polygon fill="#ffffb3" stroke="black" points="2721.11,-122 2582.89,-122 2582.89,-86 2721.11,-86 2721.11,-122"/>
<text text-anchor="middle" x="2652" y="-99.8" font-family="Times,serif" font-size="14.00">RouteEditComponent</text>
</g>
<!-- RouteEditComponent&#45;&gt;RouteModule -->
<g id="edge20" class="edge">
<title>RouteEditComponent&#45;&gt;RouteModule</title>
<path fill="none" stroke="black" d="M2652,-122.14C2652,-128.46 2652,-134 2652,-134 2652,-134 159.18,-134 159.18,-134 159.18,-134 159.18,-143.89 159.18,-143.89"/>
<polygon fill="black" stroke="black" points="155.69,-143.89 159.18,-153.89 162.69,-143.89 155.69,-143.89"/>
</g>
<!-- RoutesOverviewComponent -->
<g id="node22" class="node">
<title>RoutesOverviewComponent</title>
<polygon fill="#ffffb3" stroke="black" points="2564.91,-122 2389.09,-122 2389.09,-86 2564.91,-86 2564.91,-122"/>
<text text-anchor="middle" x="2477" y="-99.8" font-family="Times,serif" font-size="14.00">RoutesOverviewComponent</text>
</g>
<!-- RoutesOverviewComponent&#45;&gt;RouteModule -->
<g id="edge21" class="edge">
<title>RoutesOverviewComponent&#45;&gt;RouteModule</title>
<path fill="none" stroke="black" d="M2477,-122.16C2477,-127.04 2477,-131 2477,-131 2477,-131 156.92,-131 156.92,-131 156.92,-131 156.92,-143.9 156.92,-143.9"/>
<polygon fill="black" stroke="black" points="153.42,-143.9 156.92,-153.9 160.42,-143.9 153.42,-143.9"/>
</g>
<!-- TrackComponent -->
<g id="node23" class="node">
<title>TrackComponent</title>
<polygon fill="#ffffb3" stroke="black" points="2370.97,-122 2257.03,-122 2257.03,-86 2370.97,-86 2370.97,-122"/>
<text text-anchor="middle" x="2314" y="-99.8" font-family="Times,serif" font-size="14.00">TrackComponent</text>
</g>
<!-- TrackComponent&#45;&gt;RouteModule -->
<g id="edge22" class="edge">
<title>TrackComponent&#45;&gt;RouteModule</title>
<path fill="none" stroke="black" d="M2314,-122.19C2314,-125.54 2314,-128 2314,-128 2314,-128 154.65,-128 154.65,-128 154.65,-128 154.65,-143.85 154.65,-143.85"/>
<polygon fill="black" stroke="black" points="151.15,-143.85 154.65,-153.85 158.15,-143.85 151.15,-143.85"/>
</g>
<!-- LoginComponent -->
<g id="node25" class="node">
<title>LoginComponent</title>
<polygon fill="#ffffb3" stroke="black" points="3647.28,-122 3532.72,-122 3532.72,-86 3647.28,-86 3647.28,-122"/>
<text text-anchor="middle" x="3590" y="-99.8" font-family="Times,serif" font-size="14.00">LoginComponent</text>
</g>
<!-- LoginComponent&#45;&gt;UserModule -->
<g id="edge25" class="edge">
<title>LoginComponent&#45;&gt;UserModule</title>
<path fill="none" stroke="black" d="M3590,-122.15C3590,-135.74 3590,-152 3590,-152 3590,-152 259.79,-152 259.79,-152 259.79,-152 259.79,-152.18 259.79,-152.18"/>
<polygon fill="black" stroke="black" points="256.29,-143.85 259.79,-153.85 263.29,-143.85 256.29,-143.85"/>
</g>
<!-- ProfileComponent -->
<g id="node26" class="node">
<title>ProfileComponent</title>
<polygon fill="#ffffb3" stroke="black" points="3514.93,-122 3395.07,-122 3395.07,-86 3514.93,-86 3514.93,-122"/>
<text text-anchor="middle" x="3455" y="-99.8" font-family="Times,serif" font-size="14.00">ProfileComponent</text>
</g>
<!-- ProfileComponent&#45;&gt;UserModule -->
<g id="edge26" class="edge">
<title>ProfileComponent&#45;&gt;UserModule</title>
<path fill="none" stroke="black" d="M3455,-122.04C3455,-134.56 3455,-149 3455,-149 3455,-149 242.6,-149 242.6,-149 242.6,-149 242.6,-149.49 242.6,-149.49"/>
<polygon fill="black" stroke="black" points="239.1,-143.88 242.6,-153.88 246.1,-143.88 239.1,-143.88"/>
</g>
<!-- RegisterComponent -->
<g id="node27" class="node">
<title>RegisterComponent</title>
<polygon fill="#ffffb3" stroke="black" points="3376.98,-122 3249.02,-122 3249.02,-86 3376.98,-86 3376.98,-122"/>
<text text-anchor="middle" x="3313" y="-99.8" font-family="Times,serif" font-size="14.00">RegisterComponent</text>
</g>
<!-- RegisterComponent&#45;&gt;UserModule -->
<g id="edge27" class="edge">
<title>RegisterComponent&#45;&gt;UserModule</title>
<path fill="none" stroke="black" d="M3313,-122.06C3313,-133.44 3313,-146 3313,-146 3313,-146 225.4,-146 225.4,-146 225.4,-146 225.4,-146.79 225.4,-146.79"/>
<polygon fill="black" stroke="black" points="221.9,-143.94 225.4,-153.94 228.9,-143.94 221.9,-143.94"/>
</g>
</g>
</svg>
